# xmcd CD database file
#
# Track frame offsets:
#	150
#	14821
#	32648
#	46112
#	60942
#	76248
#	90819
#	106481
#	120247
#	138245
#	156382
#	173876
#
# Disc length: 2539 seconds
#
# Revision: 0
# Processed by: cddbd v1.4PL0 Copyright (c) Steve Scherf et al.
# Submitted via: CdAid 2001.05.15.01
#
DISCID=8709e90c
DTITLE=Toby Keith - Unleashed
DYEAR=1900
DGENRE=
TTITLE0=Courtesy Of The Red, White, And Blue (The Angry American)
TTITLE1=Who's Your Daddy
TTITLE2=Good To Go To Mexico
TTITLE3=It's All Good
TTITLE4=Beer For My Horses
TTITLE5=Losing My Touch
TTITLE6=Huckleberry
TTITLE7=It Works For Me
TTITLE8=Ain't It Just Like You
TTITLE9=Rock You Baby
TTITLE10=Rodeo Moon
TTITLE11=That's Not How It Is
EXTD=
EXTT0=
EXTT1=
EXTT2=
EXTT3=
EXTT4=
EXTT5=
EXTT6=
EXTT7=
EXTT8=
EXTT9=
EXTT10=
EXTT11=
PLAYORDER=
